<?xml version="1.0" standalone="no"?><!DOCTYPE svg PUBLIC "-//W3C//DTD SVG 1.1//EN" "http://www.w3.org/Graphics/SVG/1.1/DTD/svg11.dtd"><svg t="1512462164010" class="icon" style="" viewBox="0 0 1024 1024" version="1.1" xmlns="http://www.w3.org/2000/svg" p-id="1511" xmlns:xlink="http://www.w3.org/1999/xlink" width="64" height="64"><defs><style type="text/css"></style></defs><path d="M524.65664 305.29536m-63.11936 0a63.11936 63.11936 0 1 0 126.23872 0 63.11936 63.11936 0 1 0-126.23872 0Z" fill="#515151" p-id="1512"></path><path d="M524.65664 743.95648m-37.86752 0a37.86752 37.86752 0 1 0 75.73504 0 37.86752 37.86752 0 1 0-75.73504 0Z" fill="#515151" p-id="1513"></path><path d="M369.54112 369.52064m-56.81152 0a56.81152 56.81152 0 1 0 113.62304 0 56.81152 56.81152 0 1 0-113.62304 0Z" fill="#515151" p-id="1514"></path><path d="M679.7312 679.69024m-31.55968 0a31.55968 31.55968 0 1 0 63.11936 0 31.55968 31.55968 0 1 0-63.11936 0Z" fill="#515151" p-id="1515"></path><path d="M305.29536 524.63616m-50.4832 0a50.4832 50.4832 0 1 0 100.9664 0 50.4832 50.4832 0 1 0-100.9664 0Z" fill="#515151" p-id="1516"></path><path d="M743.95648 524.61568m-25.23136 0a25.23136 25.23136 0 1 0 50.46272 0 25.23136 25.23136 0 1 0-50.46272 0Z" fill="#515151" p-id="1517"></path><path d="M338.30912 648.4992a44.1344 44.1344 0 0 0 0 62.464 44.1344 44.1344 0 0 0 62.464 0 44.1344 44.1344 0 0 0 0-62.464 43.97056 43.97056 0 0 0-62.464 0z" fill="#515151" p-id="1518"></path><path d="M679.71072 369.52064m-18.92352 0a18.92352 18.92352 0 1 0 37.84704 0 18.92352 18.92352 0 1 0-37.84704 0Z" fill="#515151" p-id="1519"></path></svg>