<?xml version="1.0" standalone="no"?><!DOCTYPE svg PUBLIC "-//W3C//DTD SVG 1.1//EN" "http://www.w3.org/Graphics/SVG/1.1/DTD/svg11.dtd"><svg t="1512464628243" class="icon" style="" viewBox="0 0 1024 1024" version="1.1" xmlns="http://www.w3.org/2000/svg" p-id="1958" xmlns:xlink="http://www.w3.org/1999/xlink" width="64" height="64"><defs><style type="text/css"></style></defs><path d="M817.603617 744.017499L541.7808560000003 1024l-275.8227610000001-279.9825009999999c-19.198800000000006-19.454783999999997-19.198800000000013-50.940815999999984-2.1316282072803006e-14-70.3956a48.444972 48.444972 0 0 1 69.307668-1.4210854715202004e-14L492.75991999999997 833.291919l-3.410605131648481e-13-783.503031c-7.105427357601002e-15-27.518280000000004 21.886631999999977-49.78888799999999 49.02093599999998-49.78888800000002a49.40491200000001 49.40491200000001 0 0 1 49.02093600000002 49.78888799999998L590.8017920000001 833.291919l157.4301609999999-159.73401600000005a48.444972 48.444972 0 0 1 69.307668-1.4210854715202004e-14 50.172864 50.172864 0 0 1 0.1279920000000132 70.3956z" p-id="1959"></path></svg>